PathFileType	4	(X/Y/Z)	C:/Users/opensim2020/Desktop/walking_exp_matlab/subject01_walking07_straight_03.trc	
DataRate	CameraRate	NumFrames	NumMarkers	Units	OrigDataRate	OrigDataStartFrame	OrigNumFrames	
100.00	100.00	8	43	mm	100.00	2173	220	
Frame#	Time	LFHD			RFHD			LBHD			RBHD			C7			T10			CLAV			STRN			RBAK			LSHO			LUPA			LELB			LFRM			LWRA			LWRB			LFIN			RSHO			RUPA			RELB			RFRM			RWRA			RWRB			RFIN			LASI			RASI			LPSI			RPSI			LTHI			LKNE			LTIB			LANK			LHEE			LTOE			RTHI			RKNE			RTIB			RANK			RHEE			RTOE			*39			*40			*41			*42			
		X1	Y1	Z1	X2	Y2	Z2	X3	Y3	Z3	X4	Y4	Z4	X5	Y5	Z5	X6	Y6	Z6	X7	Y7	Z7	X8	Y8	Z8	X9	Y9	Z9	X10	Y10	Z10	X11	Y11	Z11	X12	Y12	Z12	X13	Y13	Z13	X14	Y14	Z14	X15	Y15	Z15	X16	Y16	Z16	X17	Y17	Z17	X18	Y18	Z18	X19	Y19	Z19	X20	Y20	Z20	X21	Y21	Z21	X22	Y22	Z22	X23	Y23	Z23	X24	Y24	Z24	X25	Y25	Z25	X26	Y26	Z26	X27	Y27	Z27	X28	Y28	Z28	X29	Y29	Z29	X30	Y30	Z30	X31	Y31	Z31	X32	Y32	Z32	X33	Y33	Z33	X34	Y34	Z34	X35	Y35	Z35	X36	Y36	Z36	X37	Y37	Z37	X38	Y38	Z38	X39	Y39	Z39	X40	Y40	Z40	X41	Y41	Z41	X42	Y42	Z42	X43	Y43	Z43	

138	1.370	1331.10913	272.27185	1664.59827	1438.09277	310.64987	1675.09912	1367.83521	160.47377	1620.86450	1481.59216	198.32236	1631.04932	1408.82971	133.26773	1427.31177	1428.76331	102.39101	1134.29419	1402.17871	278.74594	1363.35303	1403.95764	324.49738	1209.15088	1497.73828	86.24989	1237.04419	1244.36975	210.30479	1383.35229	1166.21069	183.95709	1194.43860	1171.19238	169.69415	1046.21484	1146.81653	199.13307	936.88635	1170.53381	265.05499	813.97650	1141.22742	212.28761	815.24261	1137.90259	253.52913	739.49933	1556.36584	224.89090	1397.26270	1669.66321	180.68942	1201.57788	1678.47656	189.59061	1075.37134	1709.30603	237.94629	963.10181	1685.20557	335.29788	861.91064	1728.47180	296.13251	856.31866	1724.46729	347.04865	787.83948	1323.06348	280.11533	933.79156	1540.15601	277.18463	929.84857	1372.11462	92.31830	940.29266	1516.62524	91.89657	937.35840	1264.89685	289.83224	606.58759	1284.72119	300.92041	472.94916	1275.66479	259.24326	287.16617	1330.25354	242.07121	70.39555	1382.80872	197.91325	40.69509	1320.72766	388.82742	35.72805	1607.46716	247.56285	592.37170	1594.95923	256.30420	435.76941	1590.96667	104.05557	347.32864	1540.23474	-52.47711	217.37874	1479.17151	-100.11322	228.67674	1555.99609	-21.63364	76.63115	1417.71716	293.99966	1708.26501	-3101.93970	1973.15942	1023.46271	-3140.54785	2012.61487	1022.16296			 
139	1.380	1329.75159	281.88217	1665.08289	1436.72852	320.38977	1675.63123	1366.58960	170.11575	1621.51929	1480.35718	208.04553	1631.73328	1407.53259	142.69164	1428.12988	1427.22998	111.05033	1135.13586	1401.11023	288.09460	1363.81067	1402.78210	333.48459	1209.44995	1496.10278	95.24720	1237.88757	1243.22815	219.99022	1384.08984	1164.48193	195.46677	1195.36804	1168.46558	182.93181	1046.72180	1143.77002	214.95193	938.09827	1166.81274	284.04135	816.85785	1137.74622	231.14198	816.89185	1133.86584	274.30896	742.30951	1555.02441	234.16296	1397.65515	1668.01331	189.09090	1202.04041	1676.65161	197.19899	1076.02393	1707.55823	242.96825	962.90161	1683.77087	337.90533	859.32941	1727.02893	298.77969	854.84216	1722.74292	347.74823	784.74347	1321.49280	288.57608	934.18555	1538.86426	286.11795	930.88733	1371.13196	100.77921	940.57404	1515.80408	100.65296	937.62634	1264.11438	295.11267	606.14032	1284.09912	304.89630	472.41391	1275.50537	261.72821	286.93311	1330.52722	242.66878	70.38419	1382.96838	198.02435	40.95731	1320.73999	389.07632	35.56932	1606.18848	262.88898	594.26733	1593.78088	275.21399	438.31949	1589.08716	122.93288	350.02951	1537.96326	-33.25560	219.93510	1476.14124	-81.09889	229.60652	1557.46692	-1.24778	80.40986	1416.30957	303.68311	1708.77795	-3101.97046	1973.19495	1023.33881	-3140.89746	2012.54175	1021.95325			 
140	1.390	1328.54834	291.64337	1665.53735	1435.52319	330.13541	1676.03455	1365.45129	179.79279	1622.17053	1479.17383	217.71814	1632.33252	1406.22180	152.01431	1428.88025	1425.77771	119.83475	1135.93958	1400.07520	297.44519	1364.18787	1401.69385	342.27481	1209.65186	1494.53638	103.76027	1238.78674	1242.17078	229.68794	1384.82886	1162.92908	206.87762	1196.30823	1165.76123	196.38396	1047.33105	1140.71851	230.81975	939.42676	1163.08887	303.07858	819.99841	1134.35999	250.03403	818.71069	1129.81372	295.16217	745.49744	1554.11194	243.55495	1398.33496	1666.38586	197.47539	1202.49316	1674.72131	204.72015	1076.56433	1705.77966	248.00011	962.75067	1682.37939	340.42603	856.83099	1725.58411	301.16537	853.31525	1721.19507	348.32425	781.87830	1319.93872	296.91373	934.55389	1537.49011	295.03430	931.94147	1370.25964	109.20112	940.84247	1514.91821	109.46322	937.81616	1263.48511	300.42218	605.75452	1283.59058	308.94443	471.82776	1275.18494	264.06207	286.65329	1330.68262	242.83742	70.34935	1383.03589	198.07654	41.15043	1320.76990	389.30112	35.41887	1604.79565	278.14951	596.17615	1592.32898	293.85480	440.75070	1586.93469	142.03166	351.93723	1536.02161	-13.65262	221.47926	1473.64929	-61.80445	229.45415	1558.10449	20.59159	83.17336	1415.09570	313.51541	1709.20642	-3102.04614	1973.06799	1023.37244	-3140.68896	2012.53845	1022.08081			 
141	1.400	1327.52795	301.45847	1665.92163	1434.50598	340.00668	1676.34570	1364.39673	189.52464	1622.79590	1478.14746	227.49731	1632.88794	1405.03748	161.35507	1429.55078	1424.38806	128.53690	1136.66431	1399.14539	306.71387	1364.54993	1400.71924	351.21106	1209.91406	1493.10742	112.61216	1239.52258	1241.21411	239.43028	1385.51074	1161.41479	218.25983	1197.30737	1163.16821	209.68781	1047.93677	1137.72717	246.77541	940.87048	1159.49426	322.10974	823.34509	1131.06714	269.00467	820.68146	1125.80188	316.06738	748.87683	1553.02100	252.65125	1398.80859	1664.83447	205.73573	1202.84912	1672.75427	212.15826	1077.07544	1704.09424	253.00226	962.67554	1681.02124	342.88864	854.38550	1724.41089	303.49698	852.04755	1719.67432	348.59921	778.95319	1318.26880	305.29251	934.97028	1536.08948	303.91217	932.95532	1369.43909	117.43804	941.07813	1514.14478	118.64457	938.21954	1262.92957	305.73526	605.37610	1283.13220	312.91537	471.21704	1275.10181	266.14014	286.36566	1330.75232	243.00340	70.37315	1383.08630	198.12791	41.24411	1320.78369	389.46674	35.30549	1603.45349	293.42035	598.02545	1590.79065	312.30347	443.14578	1584.81311	161.42210	353.27435	1534.09180	6.25576	221.71721	1471.77832	-42.20088	228.13351	1558.25110	44.07101	85.05737	1414.00195	323.41904	1709.54456	-3101.89160	1973.17871	1023.54926	-3140.63330	2012.55872	1022.07416			 
142	1.410	1326.61780	311.42172	1666.32520	1433.64380	349.95218	1676.55273	1363.46875	199.26248	1623.47400	1477.19763	237.25232	1633.35767	1403.90503	170.65027	1430.22961	1423.03845	137.31952	1137.28528	1398.25916	315.91925	1364.88599	1399.81238	360.20059	1210.21411	1491.80322	121.47400	1240.14685	1240.26062	248.94887	1386.18835	1159.99792	229.39430	1198.21118	1160.67603	223.06396	1048.67871	1134.86475	262.61407	942.44055	1155.95264	341.15057	826.93585	1127.88660	287.94705	822.89777	1121.84302	337.08414	752.62122	1551.86401	261.57669	1399.11060	1663.33655	213.98715	1203.14917	1670.79175	219.54860	1077.54846	1702.41858	258.07501	962.66003	1679.89551	345.31976	851.93036	1723.13220	305.92072	850.84937	1718.39441	348.97879	776.41064	1316.65552	313.68103	935.40009	1534.62988	312.75452	933.91693	1368.77551	125.85596	941.36096	1513.49084	127.51707	938.95795	1262.31177	311.10587	604.94324	1282.64783	316.74667	470.57352	1274.84387	268.32169	286.08252	1330.77356	243.20668	70.57087	1383.17200	198.20511	41.42063	1320.77954	389.63492	35.18124	1601.92126	308.56396	599.89288	1589.20410	330.52942	445.51099	1583.16577	180.42235	354.52356	1532.54749	26.87555	220.78288	1470.54736	-22.38183	225.64737	1557.46399	68.85900	85.95249	1413.21851	333.48346	1709.84692	-3102.15527	1972.98303	1023.80139	-3140.52393	2012.57788	1022.04883			 
143	1.420	1325.86755	321.30185	1666.68396	1432.87695	359.89905	1676.70154	1362.68689	209.09837	1624.14343	1476.44385	247.12946	1633.88855	1402.83789	179.86549	1430.82117	1421.83691	146.06459	1137.95435	1397.40649	325.07568	1365.27429	1398.72839	368.84964	1210.38501	1490.52917	130.31847	1240.70337	1239.40173	258.43762	1386.86865	1158.62085	240.47853	1199.14661	1158.06921	236.32309	1049.31323	1131.96228	278.52661	944.15613	1152.55688	360.11749	830.77557	1124.73779	306.89648	825.34918	1118.00281	357.93423	756.67468	1550.94312	270.52069	1399.53735	1661.86584	222.17462	1203.37488	1668.81287	226.80554	1077.96216	1700.78210	263.03903	962.62415	1678.61023	347.68942	849.89069	1721.92212	308.28720	849.76239	1717.13098	349.18182	773.94360	1315.09021	322.37338	935.97339	1533.09143	321.59305	934.84412	1368.17603	134.25185	941.64508	1513.07959	136.60774	939.85590	1261.67395	316.51563	604.50793	1281.96118	320.46414	469.99899	1274.44482	270.44611	285.87924	1330.87256	243.41530	70.63047	1383.15735	198.27417	41.55857	1320.76111	389.79773	35.09766	1600.34094	323.53177	601.97284	1587.57935	348.40369	447.99002	1581.34985	199.36996	355.14713	1531.42688	48.20332	218.83470	1469.76367	-2.15065	222.00604	1556.21167	95.03025	85.80140	1412.40906	343.47339	1710.01599	-3101.98364	1973.13611	1023.49066	-3140.69092	2012.50037	1021.95752			 
144	1.430	1325.22070	331.32660	1666.97876	1432.23718	369.90222	1676.78967	1361.94287	218.95024	1624.83972	1475.68665	256.93304	1634.32971	1401.88513	189.03418	1431.35120	1420.67871	154.84048	1138.48914	1396.61536	334.23306	1365.62720	1397.65112	377.47189	1210.49902	1489.37073	139.15129	1241.23792	1238.57312	267.83038	1387.51624	1157.26367	251.59651	1200.09070	1155.64270	249.48366	1050.03003	1129.20996	294.42313	945.96844	1149.20020	378.99039	834.86591	1121.71497	325.83838	827.99005	1114.30713	378.71399	761.02759	1550.27747	279.53372	1400.01270	1660.55969	230.22702	1203.63428	1666.91956	234.05490	1078.38257	1699.14990	267.93884	962.57336	1677.46106	350.06351	847.79071	1720.74500	310.61499	848.83740	1716.08826	349.54221	771.82513	1313.51282	329.72073	935.98529	1531.53796	330.38260	935.72754	1367.62292	142.71944	941.95563	1512.62207	145.66263	940.67035	1261.12830	321.79111	604.04541	1281.36292	324.00562	469.50412	1274.12378	272.67307	285.75015	1330.88245	243.67244	70.65330	1383.25391	198.46526	41.86053	1320.70557	389.95187	34.97149	1598.83801	338.24182	604.06177	1585.83887	365.92477	450.45581	1579.86877	218.24547	355.60559	1530.31543	70.04313	215.79108	1469.56323	18.65194	217.31476	1554.76306	122.51398	84.95320	1411.80542	353.58893	1710.13550	-3101.89038	1973.14685	1023.46497	-3140.70923	2012.65662	1022.15405			 
145	1.440	1324.62219	341.37912	1667.23877	1431.71716	379.94904	1676.79541	1361.37402	229.04781	1625.39124	1475.07385	266.74011	1634.74146	1401.03625	198.28061	1431.84277	1419.56702	163.56818	1138.98596	1395.89404	343.37344	1365.96838	1396.76941	386.36411	1210.73425	1488.32483	147.92345	1241.77271	1237.82739	277.19040	1388.10327	1155.97791	262.37479	1201.03552	1153.41797	262.45593	1050.75940	1126.73059	310.17056	947.95563	1145.96912	397.74649	839.18207	1118.74646	344.67273	830.84003	1110.69458	399.43451	765.63684	1549.48071	288.42035	1400.26880	1659.24524	238.22446	1203.79138	1665.01453	241.18243	1078.67078	1697.54565	272.77441	962.51178	1676.40906	352.43033	845.80725	1719.69507	312.87524	848.00452	1715.03381	349.76001	769.71301	1311.98743	338.12424	936.27234	1530.05261	339.15378	936.60559	1367.16504	151.12724	942.43402	1512.15637	154.78108	941.29791	1260.53381	326.84418	603.68463	1280.78833	327.32831	469.02023	1273.78894	274.69266	285.72092	1330.66284	243.37476	70.83937	1383.30432	198.54326	42.16621	1320.66858	390.11237	34.86728	1597.28406	352.51324	606.02844	1583.65088	382.92709	452.85086	1578.35852	237.41470	355.43439	1529.61340	92.64145	211.82916	1469.77039	40.13944	211.65901	1553.08301	150.84853	83.50888	1411.23865	363.77017	1710.22766	-3101.90698	1973.19287	1023.34412	-3140.74146	2012.49304	1021.94647			 
